<?xml version="1.0" encoding="UTF-8" standalone="no"?>
<!-- Created with Inkscape (http://www.inkscape.org/) -->

<svg
   width="71.372917mm"
   height="52.114086mm"
   viewBox="0 0 71.372917 52.114086"
   version="1.1"
   id="svg5"
   inkscape:version="1.2.2 (b0a8486, 2022-12-01)"
   sodipodi:docname="phase-space.svg"
   xmlns:inkscape="http://www.inkscape.org/namespaces/inkscape"
   xmlns:sodipodi="http://sodipodi.sourceforge.net/DTD/sodipodi-0.dtd"
   xmlns="http://www.w3.org/2000/svg"
   xmlns:svg="http://www.w3.org/2000/svg">
  <sodipodi:namedview
     id="namedview7"
     pagecolor="#ffffff"
     bordercolor="#000000"
     borderopacity="0.25"
     inkscape:showpageshadow="2"
     inkscape:pageopacity="0.0"
     inkscape:pagecheckerboard="0"
     inkscape:deskcolor="#d1d1d1"
     inkscape:document-units="mm"
     showgrid="false"
     inkscape:zoom="1.6819304"
     inkscape:cx="126.34292"
     inkscape:cy="93.047845"
     inkscape:window-width="1920"
     inkscape:window-height="1027"
     inkscape:window-x="1792"
     inkscape:window-y="25"
     inkscape:window-maximized="0"
     inkscape:current-layer="layer1" />
  <defs
     id="defs2">
    <clipPath
       id="clipPath2732">
      <path
         clip-rule="nonzero"
         d="M 0,0 H 4 V 9.964844 H 0 Z m 0,0"
         id="path2677" />
    </clipPath>
    <clipPath
       id="clipPath7470">
      <path
         clip-rule="nonzero"
         d="m 10,4 h 3 v 5.964844 h -3 z m 0,0"
         id="path1742" />
    </clipPath>
    <clipPath
       id="clipPath8331">
      <path
         clip-rule="nonzero"
         d="m 14,6 h 2 v 3.964844 h -2 z m 0,0"
         id="path8027" />
    </clipPath>
    <clipPath
       id="clipPath3407">
      <path
         clip-rule="nonzero"
         d="m 24,4 h 3 v 5.964844 h -3 z m 0,0"
         id="path5818" />
    </clipPath>
    <clipPath
       id="clipPath3273">
      <path
         clip-rule="nonzero"
         d="M 0,0 H 4 V 9.964844 H 0 Z m 0,0"
         id="path366" />
    </clipPath>
    <clipPath
       id="clipPath4935">
      <path
         clip-rule="nonzero"
         d="m 10,4 h 3 v 5.964844 h -3 z m 0,0"
         id="path5231" />
    </clipPath>
    <clipPath
       id="clipPath7340">
      <path
         clip-rule="nonzero"
         d="m 14,6 h 2 v 3.964844 h -2 z m 0,0"
         id="path826" />
    </clipPath>
    <clipPath
       id="clipPath7918">
      <path
         clip-rule="nonzero"
         d="m 24,4 h 3 v 5.964844 h -3 z m 0,0"
         id="path6311" />
    </clipPath>
    <clipPath
       id="clipPath7960">
      <path
         clip-rule="nonzero"
         d="m 27,0 h 3 v 9.964844 h -3 z m 0,0"
         id="path3602" />
    </clipPath>
    <clipPath
       id="clipPath3273-6">
      <path
         clip-rule="nonzero"
         d="M 0,0 H 4 V 9.964844 H 0 Z m 0,0"
         id="path366-9" />
    </clipPath>
    <clipPath
       id="clipPath4935-4">
      <path
         clip-rule="nonzero"
         d="m 10,4 h 3 v 5.964844 h -3 z m 0,0"
         id="path5231-1" />
    </clipPath>
    <clipPath
       id="clipPath7340-3">
      <path
         clip-rule="nonzero"
         d="m 14,6 h 2 v 3.964844 h -2 z m 0,0"
         id="path826-7" />
    </clipPath>
    <clipPath
       id="clipPath7918-8">
      <path
         clip-rule="nonzero"
         d="m 24,4 h 3 v 5.964844 h -3 z m 0,0"
         id="path6311-8" />
    </clipPath>
    <clipPath
       id="clipPath7960-3">
      <path
         clip-rule="nonzero"
         d="m 27,0 h 3 v 9.964844 h -3 z m 0,0"
         id="path3602-8" />
    </clipPath>
    <clipPath
       id="clipPath2184">
      <path
         clip-rule="nonzero"
         d="M 0,0 H 7 V 5.3125 H 0 Z m 0,0"
         id="path1831" />
    </clipPath>
    <clipPath
       id="clipPath1488">
      <path
         clip-rule="nonzero"
         d="M 0,0 H 7 V 5.3125 H 0 Z m 0,0"
         id="path2910" />
    </clipPath>
    <clipPath
       id="clipPath3378">
      <path
         clip-rule="nonzero"
         d="M 1,0 H 4 V 11.953125 H 1 Z m 0,0"
         id="path8332" />
    </clipPath>
    <clipPath
       id="clipPath7043">
      <path
         clip-rule="nonzero"
         d="m 16,7 h 2 v 4.953125 h -2 z m 0,0"
         id="path407" />
    </clipPath>
    <clipPath
       id="clipPath2016">
      <path
         clip-rule="nonzero"
         d="m 31,0 h 4 v 11.953125 h -4 z m 0,0"
         id="path5625" />
    </clipPath>
    <clipPath
       id="clipPath1892">
      <path
         clip-rule="nonzero"
         d="M 1,0 H 4 V 11.953125 H 1 Z m 0,0"
         id="path2472" />
    </clipPath>
    <clipPath
       id="clipPath5632">
      <path
         clip-rule="nonzero"
         d="m 15,5 h 10 v 6.953125 H 15 Z m 0,0"
         id="path3819" />
    </clipPath>
    <clipPath
       id="clipPath9116">
      <path
         clip-rule="nonzero"
         d="m 26,7 h 3 v 4.953125 h -3 z m 0,0"
         id="path3359" />
    </clipPath>
    <clipPath
       id="clipPath5509">
      <path
         clip-rule="nonzero"
         d="m 41,5 h 11 v 6.953125 H 41 Z m 0,0"
         id="path9433" />
    </clipPath>
    <clipPath
       id="clipPath1032">
      <path
         clip-rule="nonzero"
         d="m 53,0 h 3 v 11.953125 h -3 z m 0,0"
         id="path4678" />
    </clipPath>
    <clipPath
       id="clipPath7544">
      <path
         clip-rule="nonzero"
         d="M 1,0 H 4 V 11.953125 H 1 Z m 0,0"
         id="path5567" />
    </clipPath>
    <clipPath
       id="clipPath791">
      <path
         clip-rule="nonzero"
         d="m 17,7 h 2 v 4.953125 h -2 z m 0,0"
         id="path8188" />
    </clipPath>
    <clipPath
       id="clipPath5347">
      <path
         clip-rule="nonzero"
         d="m 34,0 h 3 v 11.953125 h -3 z m 0,0"
         id="path6704" />
    </clipPath>
    <clipPath
       id="clipPath1179">
      <path
         clip-rule="nonzero"
         d="M 1,0 H 4 V 11.953125 H 1 Z m 0,0"
         id="path3978" />
    </clipPath>
    <clipPath
       id="clipPath8160">
      <path
         clip-rule="nonzero"
         d="m 17,7 h 2 v 4.953125 h -2 z m 0,0"
         id="path6517" />
    </clipPath>
    <clipPath
       id="clipPath9132">
      <path
         clip-rule="nonzero"
         d="m 34,0 h 3 v 11.953125 h -3 z m 0,0"
         id="path5603" />
    </clipPath>
    <clipPath
       id="clipPath6195">
      <path
         clip-rule="nonzero"
         d="M 1,0 H 4 V 11.953125 H 1 Z m 0,0"
         id="path2978" />
    </clipPath>
    <clipPath
       id="clipPath88">
      <path
         clip-rule="nonzero"
         d="m 17,7 h 2 v 4.953125 h -2 z m 0,0"
         id="path5148" />
    </clipPath>
    <clipPath
       id="clipPath8859">
      <path
         clip-rule="nonzero"
         d="m 34,0 h 3 v 11.953125 h -3 z m 0,0"
         id="path103" />
    </clipPath>
  </defs>
  <g
     inkscape:label="Layer 1"
     inkscape:groupmode="layer"
     id="layer1"
     transform="translate(-83.020686,-32.012491)">
    <path
       style="fill:#000000;stroke:#000000;stroke-width:0.211736;stroke-dasharray:none;stroke-opacity:1"
       d="M 83.020686,67.152411 H 153.60692"
       id="path1298" />
    <path
       style="fill:#000000;stroke:#000000;stroke-width:0.178525;stroke-opacity:1"
       d="M 105.16205,33.787736 V 84.126578"
       id="path1298-5" />
    <circle
       style="fill:#000000;stroke:#000000;stroke-width:0.1;stroke-dasharray:none;stroke-opacity:1"
       id="path1390"
       cx="127.81383"
       cy="48.529922"
       r="0.86520123" />
    <g
       inkscape:label=""
       transform="translate(152.03991,69.609419)"
       id="g4786">
      <g
         clip-path="url(#clipPath2184)"
         id="g17"
         transform="matrix(0.352778,0,0,0.352778,-0.0771701,-1.7646e-4)">
        <g
           fill="#000000"
           fill-opacity="1"
           id="g15">
          <g
             id="use13"
             transform="translate(0,5.3130002)">
            <path
               d="m 4.03125,-2.953125 1.390625,-1.59375 c 0.125,-0.15625 0.234375,-0.25 1.21875,-0.25 V -5.3125 c -0.671875,0.03125 -0.6875,0.03125 -1.09375,0.03125 -0.34375,0 -0.859375,0 -1.203125,-0.03125 v 0.515625 c 0.234375,0 0.484375,0.0625 0.484375,0.140625 0,0.03125 -0.0625,0.109375 -0.078125,0.140625 L 3.703125,-3.34375 2.515625,-4.796875 H 3.03125 V -5.3125 C 2.75,-5.28125 1.9375,-5.28125 1.609375,-5.28125 c -0.359375,0 -1,0 -1.328125,-0.03125 v 0.515625 H 1.125 l 1.859375,2.28125 -1.546875,1.75 c -0.140625,0.171875 -0.234375,0.25 -1.21875,0.25 V 0 c 0.71875,-0.03125 0.734375,-0.03125 1.109375,-0.03125 0.34375,0 0.84375,0 1.1875,0.03125 v -0.515625 c -0.234375,0 -0.484375,-0.0625 -0.484375,-0.140625 0,-0.015625 0,-0.03125 0.078125,-0.125 L 3.3125,-2.125 4.640625,-0.515625 h -0.5 V 0 c 0.28125,-0.03125 1.078125,-0.03125 1.421875,-0.03125 0.359375,0 0.984375,0 1.328125,0.03125 v -0.515625 h -0.84375 z m 0,0"
               id="path23" />
          </g>
        </g>
      </g>
    </g>
    <g
       inkscape:label=""
       transform="translate(101.70092,32.012491)"
       id="g5675">
      <g
         clip-path="url(#clipPath1488)"
         id="g5673"
         transform="matrix(0.352778,0,0,0.352778,-0.0992187,-1.7646e-4)">
        <g
           fill="#000000"
           fill-opacity="1"
           id="g5671">
          <g
             id="g5669"
             transform="translate(0,5.3130002)">
            <path
               d="m 5.921875,-4.515625 c 0.078125,-0.1875 0.125,-0.28125 0.875,-0.28125 V -5.3125 c -0.421875,0.03125 -0.453125,0.03125 -0.9375,0.03125 -0.328125,0 -0.34375,0 -1.03125,-0.03125 v 0.515625 c 0.328125,0 0.59375,0.0625 0.59375,0.140625 0,0.015625 0,0.03125 -0.0625,0.15625 l -1.40625,3.0625 -1.53125,-3.359375 h 0.65625 V -5.3125 c -0.28125,0.03125 -1.125,0.03125 -1.4375,0.03125 -0.34375,0 -1.046875,0 -1.359375,-0.03125 v 0.515625 h 0.765625 l 2.09375,4.5625 C 3.25,0 3.28125,0.0625 3.546875,0.0625 c 0.1875,0 0.296875,-0.03125 0.390625,-0.265625 z m 0,0"
               id="path5667" />
          </g>
        </g>
      </g>
    </g>
    <circle
       style="fill:#000000;stroke:#000000;stroke-width:0.1;stroke-dasharray:none;stroke-opacity:1"
       id="path1390-1"
       cx="126.31939"
       cy="76.137711"
       r="0.86520123" />
    <circle
       style="fill:#000000;stroke:#000000;stroke-width:0.1;stroke-dasharray:none;stroke-opacity:1"
       id="path1390-1-8"
       cx="99.576805"
       cy="72.676903"
       r="0.86520123" />
    <g
       inkscape:label=""
       transform="translate(129.70198,43.65338)"
       id="g8532">
      <g
         clip-path="url(#clipPath7544)"
         id="g41"
         transform="matrix(0.352778,0,0,0.352778,-0.413411,9.7028e-4)">
        <g
           fill="#000000"
           fill-opacity="1"
           id="g39">
          <g
             id="use37"
             transform="translate(0,8.9659996)">
            <path
               d="m 3.890625,2.90625 c 0,-0.03125 0,-0.0625 -0.203125,-0.265625 C 2.484375,1.4375 1.8125,-0.53125 1.8125,-2.96875 c 0,-2.328125 0.5625,-4.328125 1.953125,-5.734375 0.125,-0.109375 0.125,-0.125 0.125,-0.171875 0,-0.0625 -0.0625,-0.09375 -0.109375,-0.09375 -0.15625,0 -1.140625,0.859375 -1.71875,2.03125 -0.609375,1.21875 -0.890625,2.484375 -0.890625,3.96875 0,1.0625 0.171875,2.484375 0.78125,3.75 C 2.671875,2.21875 3.640625,3 3.78125,3 3.828125,3 3.890625,2.96875 3.890625,2.90625 Z m 0,0"
               id="path75" />
          </g>
        </g>
      </g>
      <g
         fill="#000000"
         fill-opacity="1"
         id="g45"
         transform="matrix(0.352778,0,0,0.352778,-0.413411,9.7028e-4)">
        <g
           id="use43"
           transform="translate(4.552,8.9659996)">
          <path
             d="m 4.03125,-2.953125 1.390625,-1.59375 c 0.125,-0.15625 0.234375,-0.25 1.21875,-0.25 V -5.3125 c -0.671875,0.03125 -0.6875,0.03125 -1.09375,0.03125 -0.34375,0 -0.859375,0 -1.203125,-0.03125 v 0.515625 c 0.234375,0 0.484375,0.0625 0.484375,0.140625 0,0.03125 -0.0625,0.109375 -0.078125,0.140625 L 3.703125,-3.34375 2.515625,-4.796875 H 3.03125 V -5.3125 C 2.75,-5.28125 1.9375,-5.28125 1.609375,-5.28125 c -0.359375,0 -1,0 -1.328125,-0.03125 v 0.515625 H 1.125 l 1.859375,2.28125 -1.546875,1.75 c -0.140625,0.171875 -0.234375,0.25 -1.21875,0.25 V 0 c 0.71875,-0.03125 0.734375,-0.03125 1.109375,-0.03125 0.34375,0 0.84375,0 1.1875,0.03125 v -0.515625 c -0.234375,0 -0.484375,-0.0625 -0.484375,-0.140625 0,-0.015625 0,-0.03125 0.078125,-0.125 L 3.3125,-2.125 4.640625,-0.515625 h -0.5 V 0 c 0.28125,-0.03125 1.078125,-0.03125 1.421875,-0.03125 0.359375,0 0.984375,0 1.328125,0.03125 v -0.515625 h -0.84375 z m 0,0"
             id="path79" />
        </g>
      </g>
      <g
         fill="#000000"
         fill-opacity="1"
         id="g49"
         transform="matrix(0.352778,0,0,0.352778,-0.413411,9.7028e-4)">
        <g
           id="use47"
           transform="translate(11.651,10.759)">
          <path
             d="m 2.5,-5.078125 c 0,-0.21875 -0.015625,-0.21875 -0.234375,-0.21875 -0.328125,0.3125 -0.75,0.5 -1.5,0.5 v 0.265625 c 0.21875,0 0.640625,0 1.109375,-0.203125 v 4.078125 c 0,0.296875 -0.03125,0.390625 -0.78125,0.390625 H 0.8125 V 0 c 0.328125,-0.03125 1.015625,-0.03125 1.375,-0.03125 0.359375,0 1.046875,0 1.375,0.03125 V -0.265625 H 3.28125 c -0.75,0 -0.78125,-0.09375 -0.78125,-0.390625 z m 0,0"
             id="path83" />
        </g>
      </g>
      <g
         clip-path="url(#clipPath791)"
         id="g55"
         transform="matrix(0.352778,0,0,0.352778,-0.413411,9.7028e-4)">
        <g
           fill="#000000"
           fill-opacity="1"
           id="g53">
          <g
             id="use51"
             transform="translate(16.382999,8.9659996)">
            <path
               d="m 2.328125,0.046875 c 0,-0.6875 -0.21875,-1.203125 -0.71875,-1.203125 -0.375,0 -0.5625,0.3125 -0.5625,0.578125 C 1.046875,-0.328125 1.21875,0 1.625,0 1.78125,0 1.90625,-0.046875 2.015625,-0.15625 2.046875,-0.171875 2.0625,-0.171875 2.0625,-0.171875 c 0.03125,0 0.03125,0.15625 0.03125,0.21875 C 2.09375,0.4375 2.015625,1.21875 1.328125,2 1.1875,2.140625 1.1875,2.15625 1.1875,2.1875 c 0,0.0625 0.0625,0.125 0.125,0.125 0.09375,0 1.015625,-0.890625 1.015625,-2.265625 z m 0,0"
               id="path87" />
          </g>
        </g>
      </g>
      <g
         fill="#000000"
         fill-opacity="1"
         id="g59"
         transform="matrix(0.352778,0,0,0.352778,-0.413411,9.7028e-4)">
        <g
           id="use57"
           transform="translate(21.627001,8.9659996)">
          <path
             d="m 5.921875,-4.515625 c 0.078125,-0.1875 0.125,-0.28125 0.875,-0.28125 V -5.3125 c -0.421875,0.03125 -0.453125,0.03125 -0.9375,0.03125 -0.328125,0 -0.34375,0 -1.03125,-0.03125 v 0.515625 c 0.328125,0 0.59375,0.0625 0.59375,0.140625 0,0.015625 0,0.03125 -0.0625,0.15625 l -1.40625,3.0625 -1.53125,-3.359375 h 0.65625 V -5.3125 c -0.28125,0.03125 -1.125,0.03125 -1.4375,0.03125 -0.34375,0 -1.046875,0 -1.359375,-0.03125 v 0.515625 h 0.765625 l 2.09375,4.5625 C 3.25,0 3.28125,0.0625 3.546875,0.0625 c 0.1875,0 0.296875,-0.03125 0.390625,-0.265625 z m 0,0"
             id="path91" />
        </g>
      </g>
      <g
         fill="#000000"
         fill-opacity="1"
         id="g63"
         transform="matrix(0.352778,0,0,0.352778,-0.413411,9.7028e-4)">
        <g
           id="use61"
           transform="translate(28.726,10.759)">
          <path
             d="m 2.5,-5.078125 c 0,-0.21875 -0.015625,-0.21875 -0.234375,-0.21875 -0.328125,0.3125 -0.75,0.5 -1.5,0.5 v 0.265625 c 0.21875,0 0.640625,0 1.109375,-0.203125 v 4.078125 c 0,0.296875 -0.03125,0.390625 -0.78125,0.390625 H 0.8125 V 0 c 0.328125,-0.03125 1.015625,-0.03125 1.375,-0.03125 0.359375,0 1.046875,0 1.375,0.03125 V -0.265625 H 3.28125 c -0.75,0 -0.78125,-0.09375 -0.78125,-0.390625 z m 0,0"
             id="path95" />
        </g>
      </g>
      <g
         clip-path="url(#clipPath5347)"
         id="g69"
         transform="matrix(0.352778,0,0,0.352778,-0.413411,9.7028e-4)">
        <g
           fill="#000000"
           fill-opacity="1"
           id="g67">
          <g
             id="use65"
             transform="translate(33.458,8.9659996)">
            <path
               d="M 3.375,-2.96875 C 3.375,-3.890625 3.25,-5.359375 2.578125,-6.75 1.875,-8.1875 0.890625,-8.96875 0.765625,-8.96875 c -0.046875,0 -0.109375,0.03125 -0.109375,0.09375 0,0.046875 0,0.0625 0.203125,0.265625 1.203125,1.203125 1.859375,3.1875 1.859375,5.625 0,2.3125 -0.5625,4.3125 -1.9375,5.71875 C 0.65625,2.84375 0.65625,2.875 0.65625,2.90625 0.65625,2.96875 0.71875,3 0.765625,3 0.921875,3 1.90625,2.140625 2.484375,0.96875 3.09375,-0.25 3.375,-1.546875 3.375,-2.96875 Z m 0,0"
               id="path99" />
          </g>
        </g>
      </g>
    </g>
    <g
       inkscape:label=""
       transform="translate(127.49965,78.104122)"
       id="g8813">
      <g
         clip-path="url(#clipPath1179)"
         id="g8771"
         transform="matrix(0.352778,0,0,0.352778,-0.413411,9.7028e-4)">
        <g
           fill="#000000"
           fill-opacity="1"
           id="g8769">
          <g
             id="g8767"
             transform="translate(0,8.9659996)">
            <path
               d="m 3.890625,2.90625 c 0,-0.03125 0,-0.0625 -0.203125,-0.265625 C 2.484375,1.4375 1.8125,-0.53125 1.8125,-2.96875 c 0,-2.328125 0.5625,-4.328125 1.953125,-5.734375 0.125,-0.109375 0.125,-0.125 0.125,-0.171875 0,-0.0625 -0.0625,-0.09375 -0.109375,-0.09375 -0.15625,0 -1.140625,0.859375 -1.71875,2.03125 -0.609375,1.21875 -0.890625,2.484375 -0.890625,3.96875 0,1.0625 0.171875,2.484375 0.78125,3.75 C 2.671875,2.21875 3.640625,3 3.78125,3 3.828125,3 3.890625,2.96875 3.890625,2.90625 Z m 0,0"
               id="path8765" />
          </g>
        </g>
      </g>
      <g
         fill="#000000"
         fill-opacity="1"
         id="g8777"
         transform="matrix(0.352778,0,0,0.352778,-0.413411,9.7028e-4)">
        <g
           id="g8775"
           transform="translate(4.552,8.9659996)">
          <path
             d="m 4.03125,-2.953125 1.390625,-1.59375 c 0.125,-0.15625 0.234375,-0.25 1.21875,-0.25 V -5.3125 c -0.671875,0.03125 -0.6875,0.03125 -1.09375,0.03125 -0.34375,0 -0.859375,0 -1.203125,-0.03125 v 0.515625 c 0.234375,0 0.484375,0.0625 0.484375,0.140625 0,0.03125 -0.0625,0.109375 -0.078125,0.140625 L 3.703125,-3.34375 2.515625,-4.796875 H 3.03125 V -5.3125 C 2.75,-5.28125 1.9375,-5.28125 1.609375,-5.28125 c -0.359375,0 -1,0 -1.328125,-0.03125 v 0.515625 H 1.125 l 1.859375,2.28125 -1.546875,1.75 c -0.140625,0.171875 -0.234375,0.25 -1.21875,0.25 V 0 c 0.71875,-0.03125 0.734375,-0.03125 1.109375,-0.03125 0.34375,0 0.84375,0 1.1875,0.03125 v -0.515625 c -0.234375,0 -0.484375,-0.0625 -0.484375,-0.140625 0,-0.015625 0,-0.03125 0.078125,-0.125 L 3.3125,-2.125 4.640625,-0.515625 h -0.5 V 0 c 0.28125,-0.03125 1.078125,-0.03125 1.421875,-0.03125 0.359375,0 0.984375,0 1.328125,0.03125 v -0.515625 h -0.84375 z m 0,0"
             id="path8773" />
        </g>
      </g>
      <g
         fill="#000000"
         fill-opacity="1"
         id="g8783"
         transform="matrix(0.352778,0,0,0.352778,-0.413411,9.7028e-4)">
        <g
           id="g8781"
           transform="translate(11.651,10.759)">
          <path
             d="m 2.25,-1.625 c 0.125,-0.125 0.453125,-0.390625 0.59375,-0.5 0.484375,-0.453125 0.953125,-0.890625 0.953125,-1.609375 0,-0.953125 -0.796875,-1.5625 -1.78125,-1.5625 -0.96875,0 -1.59375,0.71875 -1.59375,1.4375 0,0.390625 0.3125,0.4375 0.421875,0.4375 0.171875,0 0.421875,-0.109375 0.421875,-0.421875 0,-0.40625 -0.40625,-0.40625 -0.5,-0.40625 C 1,-4.84375 1.53125,-5.03125 1.921875,-5.03125 c 0.734375,0 1.125,0.625 1.125,1.296875 0,0.828125 -0.578125,1.4375 -1.53125,2.390625 l -1,1.046875 C 0.421875,-0.21875 0.421875,-0.203125 0.421875,0 H 3.5625 l 0.234375,-1.421875 h -0.25 C 3.53125,-1.265625 3.46875,-0.875 3.375,-0.71875 c -0.046875,0.0625 -0.65625,0.0625 -0.78125,0.0625 H 1.171875 Z m 0,0"
             id="path8779" />
        </g>
      </g>
      <g
         clip-path="url(#clipPath8160)"
         id="g8791"
         transform="matrix(0.352778,0,0,0.352778,-0.413411,9.7028e-4)">
        <g
           fill="#000000"
           fill-opacity="1"
           id="g8789">
          <g
             id="g8787"
             transform="translate(16.382999,8.9659996)">
            <path
               d="m 2.328125,0.046875 c 0,-0.6875 -0.21875,-1.203125 -0.71875,-1.203125 -0.375,0 -0.5625,0.3125 -0.5625,0.578125 C 1.046875,-0.328125 1.21875,0 1.625,0 1.78125,0 1.90625,-0.046875 2.015625,-0.15625 2.046875,-0.171875 2.0625,-0.171875 2.0625,-0.171875 c 0.03125,0 0.03125,0.15625 0.03125,0.21875 C 2.09375,0.4375 2.015625,1.21875 1.328125,2 1.1875,2.140625 1.1875,2.15625 1.1875,2.1875 c 0,0.0625 0.0625,0.125 0.125,0.125 0.09375,0 1.015625,-0.890625 1.015625,-2.265625 z m 0,0"
               id="path8785" />
          </g>
        </g>
      </g>
      <g
         fill="#000000"
         fill-opacity="1"
         id="g8797"
         transform="matrix(0.352778,0,0,0.352778,-0.413411,9.7028e-4)">
        <g
           id="g8795"
           transform="translate(21.627001,8.9659996)">
          <path
             d="m 5.921875,-4.515625 c 0.078125,-0.1875 0.125,-0.28125 0.875,-0.28125 V -5.3125 c -0.421875,0.03125 -0.453125,0.03125 -0.9375,0.03125 -0.328125,0 -0.34375,0 -1.03125,-0.03125 v 0.515625 c 0.328125,0 0.59375,0.0625 0.59375,0.140625 0,0.015625 0,0.03125 -0.0625,0.15625 l -1.40625,3.0625 -1.53125,-3.359375 h 0.65625 V -5.3125 c -0.28125,0.03125 -1.125,0.03125 -1.4375,0.03125 -0.34375,0 -1.046875,0 -1.359375,-0.03125 v 0.515625 h 0.765625 l 2.09375,4.5625 C 3.25,0 3.28125,0.0625 3.546875,0.0625 c 0.1875,0 0.296875,-0.03125 0.390625,-0.265625 z m 0,0"
             id="path8793" />
        </g>
      </g>
      <g
         fill="#000000"
         fill-opacity="1"
         id="g8803"
         transform="matrix(0.352778,0,0,0.352778,-0.413411,9.7028e-4)">
        <g
           id="g8801"
           transform="translate(28.726,10.759)">
          <path
             d="m 2.25,-1.625 c 0.125,-0.125 0.453125,-0.390625 0.59375,-0.5 0.484375,-0.453125 0.953125,-0.890625 0.953125,-1.609375 0,-0.953125 -0.796875,-1.5625 -1.78125,-1.5625 -0.96875,0 -1.59375,0.71875 -1.59375,1.4375 0,0.390625 0.3125,0.4375 0.421875,0.4375 0.171875,0 0.421875,-0.109375 0.421875,-0.421875 0,-0.40625 -0.40625,-0.40625 -0.5,-0.40625 C 1,-4.84375 1.53125,-5.03125 1.921875,-5.03125 c 0.734375,0 1.125,0.625 1.125,1.296875 0,0.828125 -0.578125,1.4375 -1.53125,2.390625 l -1,1.046875 C 0.421875,-0.21875 0.421875,-0.203125 0.421875,0 H 3.5625 l 0.234375,-1.421875 h -0.25 C 3.53125,-1.265625 3.46875,-0.875 3.375,-0.71875 c -0.046875,0.0625 -0.65625,0.0625 -0.78125,0.0625 H 1.171875 Z m 0,0"
             id="path8799" />
        </g>
      </g>
      <g
         clip-path="url(#clipPath9132)"
         id="g8811"
         transform="matrix(0.352778,0,0,0.352778,-0.413411,9.7028e-4)">
        <g
           fill="#000000"
           fill-opacity="1"
           id="g8809">
          <g
             id="g8807"
             transform="translate(33.458,8.9659996)">
            <path
               d="M 3.375,-2.96875 C 3.375,-3.890625 3.25,-5.359375 2.578125,-6.75 1.875,-8.1875 0.890625,-8.96875 0.765625,-8.96875 c -0.046875,0 -0.109375,0.03125 -0.109375,0.09375 0,0.046875 0,0.0625 0.203125,0.265625 1.203125,1.203125 1.859375,3.1875 1.859375,5.625 0,2.3125 -0.5625,4.3125 -1.9375,5.71875 C 0.65625,2.84375 0.65625,2.875 0.65625,2.90625 0.65625,2.96875 0.71875,3 0.765625,3 0.921875,3 1.90625,2.140625 2.484375,0.96875 3.09375,-0.25 3.375,-1.546875 3.375,-2.96875 Z m 0,0"
               id="path8805" />
          </g>
        </g>
      </g>
    </g>
    <g
       inkscape:label=""
       transform="translate(84.711516,72.912914)"
       id="g9156">
      <g
         clip-path="url(#clipPath6195)"
         id="g9114"
         transform="matrix(0.352778,0,0,0.352778,-0.413411,9.7028e-4)">
        <g
           fill="#000000"
           fill-opacity="1"
           id="g9112">
          <g
             id="g9110"
             transform="translate(0,8.9659996)">
            <path
               d="m 3.890625,2.90625 c 0,-0.03125 0,-0.0625 -0.203125,-0.265625 C 2.484375,1.4375 1.8125,-0.53125 1.8125,-2.96875 c 0,-2.328125 0.5625,-4.328125 1.953125,-5.734375 0.125,-0.109375 0.125,-0.125 0.125,-0.171875 0,-0.0625 -0.0625,-0.09375 -0.109375,-0.09375 -0.15625,0 -1.140625,0.859375 -1.71875,2.03125 -0.609375,1.21875 -0.890625,2.484375 -0.890625,3.96875 0,1.0625 0.171875,2.484375 0.78125,3.75 C 2.671875,2.21875 3.640625,3 3.78125,3 3.828125,3 3.890625,2.96875 3.890625,2.90625 Z m 0,0"
               id="path9108" />
          </g>
        </g>
      </g>
      <g
         fill="#000000"
         fill-opacity="1"
         id="g9120"
         transform="matrix(0.352778,0,0,0.352778,-0.413411,9.7028e-4)">
        <g
           id="g9118"
           transform="translate(4.552,8.9659996)">
          <path
             d="m 4.03125,-2.953125 1.390625,-1.59375 c 0.125,-0.15625 0.234375,-0.25 1.21875,-0.25 V -5.3125 c -0.671875,0.03125 -0.6875,0.03125 -1.09375,0.03125 -0.34375,0 -0.859375,0 -1.203125,-0.03125 v 0.515625 c 0.234375,0 0.484375,0.0625 0.484375,0.140625 0,0.03125 -0.0625,0.109375 -0.078125,0.140625 L 3.703125,-3.34375 2.515625,-4.796875 H 3.03125 V -5.3125 C 2.75,-5.28125 1.9375,-5.28125 1.609375,-5.28125 c -0.359375,0 -1,0 -1.328125,-0.03125 v 0.515625 H 1.125 l 1.859375,2.28125 -1.546875,1.75 c -0.140625,0.171875 -0.234375,0.25 -1.21875,0.25 V 0 c 0.71875,-0.03125 0.734375,-0.03125 1.109375,-0.03125 0.34375,0 0.84375,0 1.1875,0.03125 v -0.515625 c -0.234375,0 -0.484375,-0.0625 -0.484375,-0.140625 0,-0.015625 0,-0.03125 0.078125,-0.125 L 3.3125,-2.125 4.640625,-0.515625 h -0.5 V 0 c 0.28125,-0.03125 1.078125,-0.03125 1.421875,-0.03125 0.359375,0 0.984375,0 1.328125,0.03125 v -0.515625 h -0.84375 z m 0,0"
             id="path9116" />
        </g>
      </g>
      <g
         fill="#000000"
         fill-opacity="1"
         id="g9126"
         transform="matrix(0.352778,0,0,0.352778,-0.413411,9.7028e-4)">
        <g
           id="g9124"
           transform="translate(11.651,10.759)">
          <path
             d="m 2.015625,-2.65625 c 0.625,0 1.03125,0.453125 1.03125,1.296875 0,1 -0.5625,1.28125 -0.984375,1.28125 -0.4375,0 -1.046875,-0.15625 -1.328125,-0.578125 0.296875,0 0.5,-0.1875 0.5,-0.4375 0,-0.265625 -0.1875,-0.4375 -0.453125,-0.4375 -0.203125,0 -0.4375,0.125 -0.4375,0.453125 0,0.75 0.8125,1.25 1.734375,1.25 C 3.125,0.171875 3.875,-0.5625 3.875,-1.359375 3.875,-2.03125 3.34375,-2.625 2.53125,-2.8125 c 0.625,-0.21875 1.109375,-0.75 1.109375,-1.390625 0,-0.640625 -0.71875,-1.09375 -1.546875,-1.09375 -0.859375,0 -1.5,0.453125 -1.5,1.0625 0,0.296875 0.1875,0.421875 0.40625,0.421875 0.25,0 0.40625,-0.171875 0.40625,-0.40625 0,-0.296875 -0.265625,-0.40625 -0.4375,-0.40625 0.34375,-0.4375 0.953125,-0.46875 1.09375,-0.46875 0.203125,0 0.8125,0.0625 0.8125,0.890625 0,0.546875 -0.234375,0.890625 -0.34375,1.015625 -0.234375,0.25 -0.421875,0.265625 -0.90625,0.296875 -0.15625,0 -0.21875,0.015625 -0.21875,0.125 0,0.109375 0.078125,0.109375 0.21875,0.109375 z m 0,0"
             id="path9122" />
        </g>
      </g>
      <g
         clip-path="url(#clipPath88)"
         id="g9134"
         transform="matrix(0.352778,0,0,0.352778,-0.413411,9.7028e-4)">
        <g
           fill="#000000"
           fill-opacity="1"
           id="g9132">
          <g
             id="g9130"
             transform="translate(16.382999,8.9659996)">
            <path
               d="m 2.328125,0.046875 c 0,-0.6875 -0.21875,-1.203125 -0.71875,-1.203125 -0.375,0 -0.5625,0.3125 -0.5625,0.578125 C 1.046875,-0.328125 1.21875,0 1.625,0 1.78125,0 1.90625,-0.046875 2.015625,-0.15625 2.046875,-0.171875 2.0625,-0.171875 2.0625,-0.171875 c 0.03125,0 0.03125,0.15625 0.03125,0.21875 C 2.09375,0.4375 2.015625,1.21875 1.328125,2 1.1875,2.140625 1.1875,2.15625 1.1875,2.1875 c 0,0.0625 0.0625,0.125 0.125,0.125 0.09375,0 1.015625,-0.890625 1.015625,-2.265625 z m 0,0"
               id="path9128" />
          </g>
        </g>
      </g>
      <g
         fill="#000000"
         fill-opacity="1"
         id="g9140"
         transform="matrix(0.352778,0,0,0.352778,-0.413411,9.7028e-4)">
        <g
           id="g9138"
           transform="translate(21.627001,8.9659996)">
          <path
             d="m 5.921875,-4.515625 c 0.078125,-0.1875 0.125,-0.28125 0.875,-0.28125 V -5.3125 c -0.421875,0.03125 -0.453125,0.03125 -0.9375,0.03125 -0.328125,0 -0.34375,0 -1.03125,-0.03125 v 0.515625 c 0.328125,0 0.59375,0.0625 0.59375,0.140625 0,0.015625 0,0.03125 -0.0625,0.15625 l -1.40625,3.0625 -1.53125,-3.359375 h 0.65625 V -5.3125 c -0.28125,0.03125 -1.125,0.03125 -1.4375,0.03125 -0.34375,0 -1.046875,0 -1.359375,-0.03125 v 0.515625 h 0.765625 l 2.09375,4.5625 C 3.25,0 3.28125,0.0625 3.546875,0.0625 c 0.1875,0 0.296875,-0.03125 0.390625,-0.265625 z m 0,0"
             id="path9136" />
        </g>
      </g>
      <g
         fill="#000000"
         fill-opacity="1"
         id="g9146"
         transform="matrix(0.352778,0,0,0.352778,-0.413411,9.7028e-4)">
        <g
           id="g9144"
           transform="translate(28.726,10.759)">
          <path
             d="m 2.015625,-2.65625 c 0.625,0 1.03125,0.453125 1.03125,1.296875 0,1 -0.5625,1.28125 -0.984375,1.28125 -0.4375,0 -1.046875,-0.15625 -1.328125,-0.578125 0.296875,0 0.5,-0.1875 0.5,-0.4375 0,-0.265625 -0.1875,-0.4375 -0.453125,-0.4375 -0.203125,0 -0.4375,0.125 -0.4375,0.453125 0,0.75 0.8125,1.25 1.734375,1.25 C 3.125,0.171875 3.875,-0.5625 3.875,-1.359375 3.875,-2.03125 3.34375,-2.625 2.53125,-2.8125 c 0.625,-0.21875 1.109375,-0.75 1.109375,-1.390625 0,-0.640625 -0.71875,-1.09375 -1.546875,-1.09375 -0.859375,0 -1.5,0.453125 -1.5,1.0625 0,0.296875 0.1875,0.421875 0.40625,0.421875 0.25,0 0.40625,-0.171875 0.40625,-0.40625 0,-0.296875 -0.265625,-0.40625 -0.4375,-0.40625 0.34375,-0.4375 0.953125,-0.46875 1.09375,-0.46875 0.203125,0 0.8125,0.0625 0.8125,0.890625 0,0.546875 -0.234375,0.890625 -0.34375,1.015625 -0.234375,0.25 -0.421875,0.265625 -0.90625,0.296875 -0.15625,0 -0.21875,0.015625 -0.21875,0.125 0,0.109375 0.078125,0.109375 0.21875,0.109375 z m 0,0"
             id="path9142" />
        </g>
      </g>
      <g
         clip-path="url(#clipPath8859)"
         id="g9154"
         transform="matrix(0.352778,0,0,0.352778,-0.413411,9.7028e-4)">
        <g
           fill="#000000"
           fill-opacity="1"
           id="g9152">
          <g
             id="g9150"
             transform="translate(33.458,8.9659996)">
            <path
               d="M 3.375,-2.96875 C 3.375,-3.890625 3.25,-5.359375 2.578125,-6.75 1.875,-8.1875 0.890625,-8.96875 0.765625,-8.96875 c -0.046875,0 -0.109375,0.03125 -0.109375,0.09375 0,0.046875 0,0.0625 0.203125,0.265625 1.203125,1.203125 1.859375,3.1875 1.859375,5.625 0,2.3125 -0.5625,4.3125 -1.9375,5.71875 C 0.65625,2.84375 0.65625,2.875 0.65625,2.90625 0.65625,2.96875 0.71875,3 0.765625,3 0.921875,3 1.90625,2.140625 2.484375,0.96875 3.09375,-0.25 3.375,-1.546875 3.375,-2.96875 Z m 0,0"
               id="path9148" />
          </g>
        </g>
      </g>
    </g>
  </g>
</svg>
